<svg xmlns="http://www.w3.org/2000/svg" width="750" height="250" viewBox="0 0 750 250"><defs><linearGradient id="bg" x2="1" y2="1"><stop stop-color="#dcf6ff"/><stop offset="1" stop-color="#eafaff"/></linearGradient><linearGradient id="wave"><stop stop-color="#e3f8ff"/><stop offset=".5" stop-color="#a5dcff"/><stop offset="1" stop-color="#6bc9ff"/></linearGradient><linearGradient id="blue" x1="0" x2=".7" y2="1"><stop stop-color="#a4edff"/><stop offset=".5" stop-color="#39c6ff"/><stop offset="1" stop-color="#0789f1"/></linearGradient><linearGradient id="paper" x2="1" y2="1"><stop stop-color="#fff"/><stop offset="1" stop-color="#e5faff"/></linearGradient><radialGradient id="shine" cx=".3" cy=".25" r=".8"><stop stop-color="#93eaff"/><stop offset=".55" stop-color="#3ac4ff"/><stop offset="1" stop-color="#0585f0"/></radialGradient></defs><path fill="url(#bg)" d="M0 0h750v250H0z"/><path d="M0 20C190-55 297 148 496 68S675-16 750 20v70C537 5 425 190 206 81S74 15 0 54" fill="url(#wave)" opacity=".7"/><path d="M0 50C206 9 312 153 540 105S691 45 750 72" fill="none" stroke="#fff" stroke-width="5" opacity=".55"/><path d="M0 170C194 303 302 114 451 181s200 65 299-11v51c-145 36-176-8-319-6S176 301 0 193" fill="url(#wave)" opacity=".65"/><path d="M0 203C210 296 316 170 474 219s200 35 276-12" fill="none" stroke="#fff" stroke-width="5" opacity=".8"/><g transform="translate(473 32) rotate(10 125 110)"><rect x="97" y="32" width="125" height="168" rx="20" fill="#348cff" opacity=".25"/><rect x="90" y="25" width="125" height="166" rx="18" fill="url(#blue)" stroke="#a8edff" stroke-width="3"/><rect x="96" y="34" width="108" height="150" rx="14" fill="url(#paper)" stroke="#fff" stroke-width="3"/><rect x="118" y="10" width="66" height="31" rx="7" fill="url(#blue)" stroke="#bcf1ff" stroke-width="3"/><path d="M132 32V21h38v11" fill="none" stroke="#007dd5" stroke-width="5"/><path d="M151 66v32m-16-16h32" fill="none" stroke="url(#blue)" stroke-width="14" stroke-linecap="round"/><path d="M121 120h58m-60 18h57m-55 18h41" stroke="#54c9ed" stroke-width="7" stroke-linecap="round"/></g><g transform="translate(474 53)"><path d="M26 114C-7 88 0 18 47 11c41-7 69 24 63 62-5 30-27 48-60 44l-20 24z" fill="url(#shine)" stroke="#a1f0ff" stroke-width="3"/><path d="M17 54C19 25 39 17 56 17" fill="none" stroke="#fff" stroke-width="3" opacity=".8"/><g fill="#fff" stroke="#caefff" stroke-width="2"><ellipse cx="31" cy="66" rx="7" ry="8"/><ellipse cx="53" cy="65" rx="7" ry="8"/><ellipse cx="75" cy="64" rx="7" ry="8"/></g></g></svg>